# xmcd CD database file
#
# Track frame offsets:
#	150
#	13470
#	29328
#	43117
#	57940
#	80281
#	98443
#	114702
#	135742
#	148356
#
# Disc length: 2232 seconds
#
# Revision: 0
# Processed by: cddbd v1.5.1PL2 Copyright (c) Steve Scherf et al.
# Submitted via: CDex 1.51
#
DISCID=8b08b60a
DTITLE=María Puga Lareo - Body and Soul
DYEAR=2005
DGENRE=Jazz
TTITLE0=Our Love Is
TTITLE1=Unchain My Heart
TTITLE2=Drown in my own tears
TTITLE3=The lady is a tramp
TTITLE4=Body and Soul
TTITLE5=All of me
TTITLE6=Addicted to you
TTITLE7=Blues in the night
TTITLE8=(Get yor kicks on) Route 66
TTITLE9=I Have Fallen in Love
EXTD=YEAR: 2005
EXTT0=
EXTT1=
EXTT2=
EXTT3=
EXTT4=
EXTT5=
EXTT6=
EXTT7=
EXTT8=
EXTT9=
PLAYORDER=
